<svg width="116" height="116" viewBox="0 0 116 116" fill="none" xmlns="http://www.w3.org/2000/svg">
<rect width="116" height="116" rx="31" fill="black"/>
<path d="M34 32.8215C34 30.2881 36.0537 28.2344 38.5872 28.2344H77.578C80.1114 28.2344 82.1652 30.2881 82.1652 32.8215V46.4811C82.1652 49.0145 80.1114 51.0682 77.578 51.0682H38.5872C36.0537 51.0682 34 49.0145 34 46.4811V32.8215Z" fill="white"/>
<path d="M65.4922 56.8022C67.7301 56.8022 69.1288 59.2564 68.0099 61.2197L53.7198 86.293C52.5612 88.3259 49.6352 88.2357 48.6007 86.1353L45.9559 80.7651C45.7718 80.3914 45.6683 79.9823 45.6523 79.565L45.4028 73.0807C45.3655 72.1107 44.8588 71.2217 44.0483 70.7041L38.6301 67.2438C38.2813 67.0211 37.9833 66.7257 37.7558 66.3774L34.4873 61.372C33.2089 59.4142 34.5948 56.8022 36.912 56.8022L65.4922 56.8022Z" fill="white"/>
</svg>
